# xmcd CD database file
#
# Track frame offsets:
#	180
#	15252
#	30169
#	53811
#	68363
#	93711
#	109563
#	120704
#	142825
#	156195
#	169086
#	183630
#	207348
#
# Disc length: 2936 seconds
#
# Revision: 0
# Processed by: cddbd v1.5.1PL0 Copyright (c) Steve Scherf et al.
# Submitted via: cdripper 1.0.10
#
DISCID=9e0b760d
DTITLE=Kenny Wayne - Alive and Loose
DYEAR=1995
DGENRE=Blues
TTITLE0=Blues Love Theme
TTITLE1=I'm Gonna Be A Wheel Someday
TTITLE2=Bit By The Blues
TTITLE3=I Cried
TTITLE4=Blues On My Mind
TTITLE5=My Hearts In Trouble
TTITLE6=Mr. Pianoman
TTITLE7=First Love
TTITLE8=I've Been Alone
TTITLE9=Facing The Wall (So She Can't See Me)
TTITLE10=She Wants To Party
TTITLE11=Accused and Sentenced
TTITLE12=I'm A Love You
EXTD=YEAR: 1995
EXTT0=
EXTT1=
EXTT2=
EXTT3=
EXTT4=
EXTT5=
EXTT6=
EXTT7=
EXTT8=
EXTT9=
EXTT10=
EXTT11=
EXTT12=
PLAYORDER=
